<svg width="160" height="72" viewBox="0 0 160 72" fill="none" xmlns="http://www.w3.org/2000/svg">
<path d="M60.668 28.7011C60.668 29.7989 60.7867 30.689 60.9944 31.3417C61.2317 31.9945 61.5284 32.7066 61.9438 33.478C62.0922 33.7153 62.1515 33.9527 62.1515 34.1604C62.1515 34.4571 61.9735 34.7538 61.5878 35.0505L59.7185 36.2967C59.4515 36.4747 59.1845 36.5637 58.9471 36.5637C58.6504 36.5637 58.3537 36.4153 58.057 36.1483C57.6416 35.7033 57.2856 35.2285 56.9889 34.7538C56.6922 34.2494 56.3955 33.6857 56.0691 33.0033C53.7548 35.7329 50.8471 37.0978 47.346 37.0978C44.8537 37.0978 42.8658 36.3857 41.4119 34.9615C39.9581 33.5373 39.2163 31.6384 39.2163 29.2648C39.2163 26.7428 40.1064 24.6956 41.9163 23.1527C43.7262 21.6098 46.1295 20.8384 49.1856 20.8384C50.1943 20.8384 51.2328 20.9274 52.3306 21.0758C53.4284 21.2241 54.5559 21.4615 55.7427 21.7285V19.5626C55.7427 17.3076 55.268 15.7351 54.3482 14.8153C53.3987 13.8955 51.7965 13.4505 49.5119 13.4505C48.4735 13.4505 47.4053 13.5692 46.3075 13.8362C45.2097 14.1032 44.1416 14.4296 43.1031 14.845C42.6284 15.0527 42.2724 15.1714 42.0647 15.2307C41.857 15.29 41.7086 15.3197 41.5899 15.3197C41.1746 15.3197 40.9669 15.023 40.9669 14.3999V12.9461C40.9669 12.4714 41.0262 12.1153 41.1746 11.9076C41.3229 11.6999 41.5899 11.4922 42.0053 11.2845C43.0438 10.7505 44.2899 10.3054 45.7438 9.94937C47.1976 9.56366 48.7405 9.38563 50.3724 9.38563C53.9031 9.38563 56.4845 10.1867 58.146 11.7889C59.7779 13.3911 60.6087 15.8241 60.6087 19.0878V28.7011H60.668ZM48.6218 33.2109C49.6009 33.2109 50.6097 33.0329 51.6779 32.6769C52.746 32.3208 53.6955 31.6681 54.4966 30.778C54.9713 30.2142 55.3273 29.5912 55.5053 28.8791C55.6834 28.167 55.8021 27.3065 55.8021 26.2978V25.0516C54.9416 24.8439 54.0218 24.6659 53.0724 24.5472C52.1229 24.4285 51.2031 24.3692 50.2834 24.3692C48.2954 24.3692 46.8416 24.7549 45.8625 25.556C44.8834 26.3571 44.4086 27.4846 44.4086 28.9681C44.4086 30.3626 44.7647 31.4011 45.5064 32.1131C46.2185 32.8549 47.257 33.2109 48.6218 33.2109ZM72.4471 36.4153C71.9131 36.4153 71.557 36.3263 71.3197 36.1186C71.0823 35.9406 70.8746 35.5252 70.6966 34.9615L63.724 12.0263C63.546 11.4329 63.457 11.0472 63.457 10.8395C63.457 10.3648 63.6944 10.0977 64.1691 10.0977H67.0768C67.6405 10.0977 68.0262 10.1867 68.2339 10.3944C68.4713 10.5724 68.6493 10.9878 68.8273 11.5516L73.812 31.1934L78.4405 11.5516C78.5889 10.9582 78.7669 10.5724 79.0043 10.3944C79.2416 10.2164 79.657 10.0977 80.1911 10.0977H82.5647C83.1285 10.0977 83.5142 10.1867 83.7515 10.3944C83.9889 10.5724 84.1966 10.9878 84.3153 11.5516L89.0032 31.4307L94.1362 11.5516C94.3142 10.9582 94.5219 10.5724 94.7296 10.3944C94.9669 10.2164 95.3527 10.0977 95.8867 10.0977H98.6461C99.1208 10.0977 99.3878 10.3351 99.3878 10.8395C99.3878 10.9878 99.3582 11.1362 99.3285 11.3142C99.2988 11.4922 99.2395 11.7296 99.1208 12.056L91.9702 34.9912C91.7922 35.5846 91.5845 35.9703 91.3472 36.1483C91.1098 36.3263 90.7241 36.445 90.2197 36.445H87.668C87.1043 36.445 86.7186 36.356 86.4812 36.1483C86.2439 35.9406 86.0362 35.5549 85.9175 34.9615L81.3186 15.8241L76.7493 34.9318C76.601 35.5252 76.423 35.911 76.1856 36.1186C75.9482 36.3263 75.5329 36.4153 74.9988 36.4153H72.4471ZM110.574 37.2164C109.031 37.2164 107.488 37.0384 106.004 36.6824C104.521 36.3263 103.364 35.9406 102.592 35.4956C102.118 35.2285 101.791 34.9318 101.672 34.6648C101.554 34.3978 101.494 34.1011 101.494 33.834V32.3208C101.494 31.6978 101.732 31.4011 102.177 31.4011C102.355 31.4011 102.533 31.4307 102.711 31.4901C102.889 31.5494 103.156 31.6681 103.453 31.7868C104.461 32.2318 105.559 32.5879 106.716 32.8252C107.903 33.0626 109.06 33.1813 110.247 33.1813C112.116 33.1813 113.57 32.8549 114.579 32.2022C115.588 31.5494 116.122 30.6 116.122 29.3835C116.122 28.5527 115.855 27.8703 115.321 27.3065C114.787 26.7428 113.778 26.2384 112.324 25.7637L108.022 24.4285C105.856 23.7461 104.254 22.7373 103.275 21.4021C102.296 20.0966 101.791 18.6428 101.791 17.0999C101.791 15.8538 102.058 14.756 102.592 13.8065C103.126 12.8571 103.838 12.0263 104.729 11.3736C105.619 10.6911 106.627 10.1867 107.814 9.83069C109.001 9.47465 110.247 9.32629 111.553 9.32629C112.205 9.32629 112.888 9.35596 113.541 9.44498C114.223 9.53399 114.846 9.65267 115.469 9.77135C116.063 9.9197 116.626 10.0681 117.16 10.2461C117.694 10.4241 118.11 10.6021 118.407 10.7801C118.822 11.0175 119.119 11.2549 119.297 11.5219C119.475 11.7593 119.564 12.0856 119.564 12.501V13.8955C119.564 14.5186 119.326 14.845 118.881 14.845C118.644 14.845 118.258 14.7263 117.754 14.4889C116.063 13.7175 114.164 13.3318 112.057 13.3318C110.366 13.3318 109.031 13.5988 108.111 14.1626C107.191 14.7263 106.716 15.5867 106.716 16.8032C106.716 17.634 107.013 18.3461 107.607 18.9098C108.2 19.4736 109.298 20.0373 110.87 20.5417L115.083 21.8769C117.22 22.5593 118.763 23.5087 119.682 24.7252C120.602 25.9417 121.047 27.3362 121.047 28.8791C121.047 30.1549 120.78 31.312 120.276 32.3208C119.742 33.3296 119.03 34.2197 118.11 34.9318C117.19 35.6736 116.092 36.2077 114.816 36.5934C113.481 37.0088 112.087 37.2164 110.574 37.2164Z" fill="white"/>
<path fill-rule="evenodd" clip-rule="evenodd" d="M116.181 51.6363C106.42 58.8462 92.2374 62.6736 80.0429 62.6736C62.9528 62.6736 47.5538 56.3539 35.923 45.8505C35.0033 45.0198 35.834 43.8923 36.9318 44.545C49.5121 51.844 65.0297 56.2648 81.0814 56.2648C91.9111 56.2648 103.809 54.0099 114.757 49.3813C116.389 48.6396 117.784 50.4495 116.181 51.6363Z" fill="white"/>
<path fill-rule="evenodd" clip-rule="evenodd" d="M120.246 47.0078C119 45.4056 111.998 46.2364 108.823 46.6221C107.874 46.7407 107.725 45.91 108.586 45.2869C114.164 41.3704 123.332 42.4979 124.4 43.8034C125.468 45.1385 124.103 54.3067 118.881 58.6979C118.08 59.3803 117.309 59.0243 117.665 58.1342C118.852 55.1968 121.492 48.5803 120.246 47.0078Z" fill="white"/>
</svg>
