<svg width="160" height="72" viewBox="0 0 160 72" fill="none" xmlns="http://www.w3.org/2000/svg">
<path d="M136.596 42.3077C136.404 42.3077 136.212 42.4423 136.135 42.6923C134.962 46.0577 133.346 48.0769 132.038 48.0769C131.288 48.0769 130.981 47.2308 130.981 45.9038C130.981 42.5962 132.962 35.5962 133.962 32.3846C134.077 32 134.154 31.6538 134.154 31.3654C134.154 30.4423 133.654 29.9808 132.385 29.9808C131.019 29.9808 129.577 30.5192 128.154 33C127.673 30.8077 126.173 29.8462 124.115 29.8462C121.712 29.8462 119.404 31.3846 117.5 33.8846C115.596 36.3846 113.365 37.2115 111.673 36.7885C112.885 33.8269 113.327 31.6154 113.327 29.9615C113.327 27.3846 112.058 25.8269 110 25.8269C106.865 25.8269 105.058 28.8077 105.058 31.9615C105.058 34.3846 106.154 36.8846 108.577 38.0962C106.538 42.6923 103.577 46.8462 102.462 46.8462C101 46.8462 100.577 39.7308 100.654 34.6538C100.712 31.7308 100.942 31.5769 100.942 30.6923C100.942 30.1923 100.615 29.8462 99.2885 29.8462C96.2115 29.8462 95.25 32.4615 95.1154 35.4423C95.0769 36.5769 94.8846 37.7115 94.5769 38.8077C93.2885 43.4038 90.6346 46.8846 88.9038 46.8846C88.0962 46.8846 87.8846 46.0769 87.8846 45.0385C87.8846 41.7308 89.7308 37.5962 89.7308 34.0769C89.7308 31.4808 88.5962 29.8462 86.4615 29.8462C83.9423 29.8462 80.5962 32.8462 77.4423 38.4615C78.4808 34.1538 78.9038 30 75.8269 30C75.1538 30.0192 74.5 30.1731 73.9231 30.5C73.5192 30.6923 73.2692 31.0962 73.3077 31.5577C73.5962 36.1346 69.6154 47.8654 65.8462 47.8654C65.1538 47.8654 64.8269 47.1154 64.8269 45.9231C64.8269 42.6154 66.8077 35.6154 67.7885 32.4231C67.9231 32 67.9808 31.6538 67.9808 31.3462C67.9808 30.4615 67.4423 30.0192 66.2115 30.0192C64.8654 30.0192 63.4039 30.5385 61.9808 33.0192C61.4808 30.8269 60 29.8654 57.9231 29.8654C54.5192 29.8654 50.7308 33.4615 49.0577 38.1346C46.8269 44.3846 42.3269 50.4231 36.2692 50.4231C30.7692 50.4231 27.8654 45.8462 27.8654 38.6154C27.8654 28.1731 35.5192 19.6538 41.2115 19.6538C43.9231 19.6538 45.2308 21.3846 45.2308 24.0385C45.2308 27.25 43.4423 28.75 43.4423 29.9615C43.4423 30.3269 43.75 30.7115 44.3654 30.7115C46.8269 30.7115 49.75 27.8077 49.75 23.8462C49.75 19.8846 46.5385 17 40.8462 17C31.4615 17 22 26.4423 22 38.5577C22 48.1923 26.75 54 34.9808 54C40.5962 54 45.4808 49.6346 48.1346 44.5577C48.4423 48.7692 50.3462 50.9808 53.2692 50.9808C55.8654 50.9808 57.9615 49.4423 59.5769 46.7115C60.1923 49.5577 61.8269 50.9423 63.9615 50.9423C66.4039 50.9423 68.4423 49.4038 70.3846 46.5192C70.3462 48.7692 70.8654 50.9038 72.8269 50.9038C73.75 50.9038 74.8462 50.6923 75.0385 49.8846C77.0962 41.3654 82.1923 34.4231 83.75 34.4231C84.2115 34.4231 84.3462 34.8654 84.3462 35.3846C84.3462 37.6923 82.7115 42.4423 82.7115 45.4615C82.7115 48.7308 84.0962 50.9038 86.9808 50.9038C90.1731 50.9038 93.4038 47 95.5577 41.3077C96.2308 46.6346 97.6923 50.9231 99.9808 50.9231C102.788 50.9231 107.769 45.0192 110.788 38.7692C111.962 38.9231 113.75 38.8846 115.462 37.6731C114.731 39.5192 114.308 41.5192 114.308 43.5385C114.308 49.3462 117.077 50.9615 119.462 50.9615C122.058 50.9615 124.154 49.4231 125.769 46.6923C126.308 49.1538 127.654 50.9231 130.154 50.9231C134.058 50.9231 137.442 46.9423 137.442 43.6731C137.404 42.8269 137.038 42.3077 136.596 42.3077ZM55.6538 47.7692C54.0769 47.7692 53.4615 46.1731 53.4615 43.8269C53.4615 39.7115 56.2692 32.8654 59.25 32.8654C60.5385 32.8654 61.0385 34.3846 61.0385 36.2692C61.0385 40.4231 58.3654 47.7692 55.6538 47.7692ZM109.596 35.5192C108.654 34.4038 108.308 32.8846 108.308 31.5192C108.308 29.8462 108.923 28.4423 109.654 28.4423C110.385 28.4423 110.615 29.1731 110.615 30.1731C110.615 31.8269 110.019 34.2885 109.596 35.5192ZM121.808 47.7692C120.231 47.7692 119.615 45.9423 119.615 43.8269C119.615 39.8654 122.423 32.8654 125.423 32.8654C126.731 32.8654 127.173 34.3846 127.173 36.2692C127.192 40.4231 124.558 47.7692 121.808 47.7692Z" fill="white"/>
</svg>
