<svg width="160" height="72" viewBox="0 0 160 72" fill="none" xmlns="http://www.w3.org/2000/svg">
<path d="M73.9887 45.4668V31.7504H74.2305L84.1119 45.4668H87.2214V25.3241H83.7664V39.0059H83.5245L73.6432 25.3241H70.5337V45.4668H73.9887ZM96.9991 45.7777C101.56 45.7777 104.358 42.8064 104.358 37.8312C104.358 32.8905 101.56 29.8847 96.9991 29.8847C92.473 29.8847 89.6399 32.8905 89.6399 37.8312C89.6744 42.8064 92.4384 45.7777 96.9991 45.7777ZM96.9991 42.8755C94.5806 42.8755 93.1986 41.0444 93.1986 37.8312C93.1986 34.6526 94.5806 32.7869 96.9991 32.7869C99.4176 32.7869 100.8 34.6526 100.8 37.8312C100.8 41.0444 99.4176 42.8755 96.9991 42.8755ZM107.502 26.4642V30.2993H105.084V33.0633H107.502V41.3899C107.502 44.3612 108.884 45.5359 112.408 45.5359C113.065 45.5359 113.721 45.4668 114.24 45.3631V42.6682C113.825 42.7028 113.549 42.7373 113.065 42.7373C111.614 42.7373 110.957 42.0809 110.957 40.5607V33.0633H114.24V30.2993H110.957V26.4642H107.502ZM116.313 45.4668H119.768V30.1956H116.313V45.4668ZM118.04 27.6735C119.18 27.6735 120.113 26.7406 120.113 25.6005C120.113 24.4258 119.18 23.4929 118.04 23.4929C116.9 23.4929 115.967 24.4258 115.967 25.6005C115.967 26.7406 116.9 27.6735 118.04 27.6735ZM129.234 45.7777C133.795 45.7777 136.593 42.8064 136.593 37.8312C136.593 32.8905 133.795 29.8847 129.234 29.8847C124.708 29.8847 121.875 32.8905 121.875 37.8312C121.875 42.8064 124.639 45.7777 129.234 45.7777ZM129.234 42.8755C126.816 42.8755 125.434 41.0444 125.434 37.8312C125.434 34.6526 126.816 32.7869 129.234 32.7869C131.618 32.7869 133.035 34.6526 133.035 37.8312C133 41.0444 131.618 42.8755 129.234 42.8755ZM138.632 45.4668H142.087V36.5874C142.087 34.3417 143.4 32.9251 145.438 32.9251C147.546 32.9251 148.513 34.0998 148.513 36.4147V45.4668H151.968V35.5855C151.968 31.9231 150.103 29.8847 146.717 29.8847C144.436 29.8847 142.916 30.9212 142.191 32.6487H141.949V30.1956H138.597C138.632 30.1956 138.632 45.4668 138.632 45.4668Z" fill="white"/>
<path fill-rule="evenodd" clip-rule="evenodd" d="M17.603 19.1051C19.2268 20.418 19.8142 20.3143 22.8546 20.107L51.4966 18.3795C52.1185 18.3795 51.6003 17.7576 51.393 17.6885L46.6251 14.268C45.7268 13.577 44.483 12.7478 42.1681 12.9551L14.4589 14.9936C13.457 15.0972 13.2497 15.6155 13.6643 15.9955L17.603 19.1051ZM19.3305 25.7732V55.9009C19.3305 57.5248 20.1251 58.1121 21.9563 58.0085L53.4314 56.1773C55.2626 56.0737 55.4699 54.9681 55.4699 53.6552V23.7348C55.4699 22.4219 54.9516 21.6963 53.846 21.8L20.9543 23.7348C19.7451 23.8384 19.3305 24.4603 19.3305 25.7732ZM50.391 27.3971C50.5983 28.2954 50.391 29.2282 49.4927 29.3319L47.9725 29.6428V51.8931C46.6596 52.5841 45.4504 52.9987 44.4139 52.9987C42.79 52.9987 42.3754 52.4805 41.1661 50.9603L31.2503 35.3782V50.442L34.3943 51.133C34.3943 51.133 34.3943 52.9642 31.8722 52.9642L24.8931 53.3788C24.6858 52.9642 24.8931 51.9622 25.5841 51.7549L27.4152 51.2367V31.3358L24.8931 31.1285C24.6858 30.2302 25.204 28.9173 26.6206 28.8136L34.1179 28.2954L44.4484 44.0502V30.1265L41.8226 29.8156C41.6153 28.71 42.4445 27.8808 43.4465 27.7771L50.391 27.3971ZM12.1441 12.2296L40.9934 10.122C44.5175 9.81107 45.4504 10.0184 47.6616 11.6422L56.8519 18.1031C58.3721 19.2087 58.8903 19.5197 58.8903 20.7289V56.2119C58.8903 58.4231 58.0957 59.736 55.2626 59.9433L21.7835 61.9817C19.6414 62.0854 18.6395 61.7744 17.5339 60.3579L10.7275 51.5476C9.51825 49.9237 9 48.7145 9 47.2979V15.7537C9 13.9225 9.8292 12.4369 12.1441 12.2296Z" fill="white"/>
</svg>
