<svg width="160" height="72" viewBox="0 0 160 72" fill="none" xmlns="http://www.w3.org/2000/svg">
<path fill-rule="evenodd" clip-rule="evenodd" d="M55.2304 38.3781C53.8702 37.6264 53.1543 37.0179 53.1543 36.1589C53.1543 35.0492 54.1207 34.3692 55.6599 34.3692C57.4496 34.3692 59.0245 35.1208 59.0245 35.1208L60.2773 31.2909C60.2773 31.2909 59.1319 30.396 55.7315 30.396C51.0066 30.396 47.7136 33.1164 47.7136 36.9105C47.7136 39.0582 49.2527 40.7047 51.293 41.8859C52.9395 42.8166 53.5122 43.4967 53.5122 44.4631C53.5122 45.5011 52.689 46.3244 51.1498 46.3244C48.859 46.3244 46.7113 45.1432 46.7113 45.1432L45.387 48.9732C45.387 48.9732 47.3914 50.2976 50.7203 50.2976C55.5883 50.2976 59.0603 47.8994 59.0603 43.604C59.1319 41.2416 57.3422 39.5951 55.2304 38.3781Z" fill="white"/>
<path fill-rule="evenodd" clip-rule="evenodd" d="M74.6308 30.3244C72.2326 30.3244 70.3713 31.4699 68.9038 33.188L68.8322 33.1522L70.9082 22.2708H65.5033L60.2416 49.9397H65.6465L67.4362 40.49C68.1521 36.9106 69.9776 34.7271 71.6957 34.7271C72.9127 34.7271 73.378 35.5504 73.378 36.7316C73.378 37.4833 73.3065 38.3781 73.1275 39.1298L71.0872 49.9755H76.4921L78.604 38.8077C78.8546 37.6265 78.9977 36.2305 78.9977 35.264C79.0335 32.1499 77.4228 30.3244 74.6308 30.3244Z" fill="white"/>
<path fill-rule="evenodd" clip-rule="evenodd" d="M80.4294 42.745C80.4294 36.1947 84.7605 30.3245 91.2751 30.3245C96.3579 30.3245 98.6129 34.0113 98.5771 37.9128C98.5771 44.6063 94.2818 50.3334 87.8746 50.3334C83.0066 50.3334 80.4294 46.933 80.4294 42.745ZM86.0133 42.6019C86.0133 44.5705 86.765 46.1455 88.6263 46.1455C91.4898 46.1455 93.1006 41.0627 93.1006 37.6981C93.1006 36.0873 92.4921 34.4408 90.5592 34.4408C87.6241 34.4408 86.0133 39.4878 86.0133 42.6019Z" fill="white"/>
<path fill-rule="evenodd" clip-rule="evenodd" d="M106.738 33.5459C106.738 33.5459 108.814 30.3245 112.465 30.3245C116.438 30.3245 118.049 33.5817 118.049 37.2685C118.049 43.8547 113.897 50.3692 107.526 50.3692C105.45 50.3692 104.34 49.6533 104.34 49.6533H104.233L102.729 57.6712H97.3243L101.083 37.8412C101.512 35.5862 101.942 32.6153 102.192 30.6466H106.989L106.667 33.5459H106.738ZM105.092 45.4654C105.092 45.4654 105.915 46.2529 107.311 46.2529C110.318 46.2529 112.394 41.2417 112.394 37.7697C112.394 36.3379 111.893 34.7987 110.246 34.7987C108.385 34.7987 106.631 37.0538 105.987 40.4184L105.092 45.4654Z" fill="white"/>
<path fill-rule="evenodd" clip-rule="evenodd" d="M125.781 22.5212C124.063 22.5212 122.667 23.8814 122.667 25.6711C122.667 27.2819 123.669 28.3915 125.208 28.3915H125.28C126.962 28.3915 128.429 27.2461 128.465 25.2416C128.501 23.6667 127.427 22.5212 125.781 22.5212Z" fill="white"/>
<path fill-rule="evenodd" clip-rule="evenodd" d="M118.192 49.9396H123.633L127.32 30.7539H121.843L118.192 49.9396Z" fill="white"/>
<path fill-rule="evenodd" clip-rule="evenodd" d="M141.065 30.6823H137.306L137.485 29.7875C137.807 27.9262 138.881 26.2796 140.707 26.2796C141.673 26.2796 142.425 26.566 142.425 26.566L143.499 22.3423C143.499 22.3423 142.568 21.877 140.564 21.877C138.631 21.877 136.734 22.4139 135.266 23.6667C133.405 25.2416 132.546 27.4966 132.116 29.7875L131.973 30.6823H129.467L128.68 34.7629H131.186L128.322 49.9038H133.727L136.59 34.7629H140.313L141.065 30.6823Z" fill="white"/>
<path fill-rule="evenodd" clip-rule="evenodd" d="M154.094 30.7539C154.094 30.7539 150.693 39.2729 149.19 43.9262H149.119C149.011 42.4228 147.794 30.7539 147.794 30.7539H142.103L145.36 48.3646C145.432 48.7584 145.396 49.0089 145.253 49.2595C144.608 50.4765 143.57 51.6577 142.318 52.5168C141.315 53.2684 140.17 53.7338 139.275 54.0559L140.779 58.6376C141.888 58.387 144.143 57.4922 146.076 55.7025C148.546 53.3758 150.837 49.8322 153.163 44.9642L159.785 30.7539L154.094 30.7539Z" fill="white"/>
<path fill-rule="evenodd" clip-rule="evenodd" d="M25.7719 57.4921L39.1589 54.5928C39.1589 54.5928 34.3267 21.9127 34.2909 21.6979C34.2551 21.4831 34.0761 21.34 33.8971 21.34C33.7182 21.34 30.3177 21.0894 30.3177 21.0894C30.3177 21.0894 27.9553 18.727 27.6689 18.4764C27.5974 18.4048 27.5258 18.369 27.4542 18.3333L25.7719 57.4921Z" fill="white"/>
<path fill-rule="evenodd" clip-rule="evenodd" d="M26.8814 18.2617C26.8635 18.2617 26.8367 18.2707 26.8098 18.2796C26.783 18.2886 26.7562 18.2975 26.7383 18.2975C26.7025 18.2975 26.2013 18.4407 25.4139 18.6913C24.6264 16.4004 23.2304 14.2886 20.7606 14.2886H20.5459C19.83 13.3937 18.9709 13 18.2192 13C12.4564 13 9.70022 20.1946 8.84116 23.8456C6.62192 24.5257 5.01119 25.0268 4.83221 25.0984C3.57942 25.4922 3.54362 25.528 3.40045 26.7092C3.25727 27.5682 0 52.8031 0 52.8031L25.1633 57.528L26.8814 18.2617ZM20.3311 20.0157V20.2662C19.7445 20.4467 19.1327 20.6335 18.5088 20.824C17.648 21.0868 16.7643 21.3566 15.8926 21.6264C16.7517 18.3333 18.3624 16.7226 19.7584 16.1141C20.1163 17.0447 20.3311 18.2975 20.3311 20.0157ZM18.7919 14.7897C18.5414 14.6107 18.2908 14.5391 18.0403 14.5391C13.9239 14.5391 11.5973 19.9441 10.6309 23.2729C11.7405 22.9508 12.9217 22.5928 14.1387 22.1991C14.962 17.8322 16.9664 15.6488 18.7919 14.7897ZM19.0425 33.9754C19.0425 33.9754 17.5392 33.1879 15.7494 33.1879C13.0649 33.1879 12.9575 34.8702 12.9575 35.2998C12.9575 36.2031 13.8925 36.8894 15.0251 37.7207C16.7649 38.9976 18.9709 40.6167 18.9709 43.8904C18.9709 48.1499 16.2864 50.8702 12.6353 50.8702C8.26846 50.8702 6.04922 48.1499 6.04922 48.1499L7.23043 44.2841C7.23043 44.2841 9.52125 46.2528 11.4541 46.2528C12.7069 46.2528 13.2438 45.2506 13.2438 44.5347C13.2438 43.2169 12.2951 42.4492 11.2292 41.5867C9.86294 40.4812 8.30425 39.2199 8.30425 36.4452C8.30425 32.2931 11.2752 28.2483 17.3244 28.2483C19.651 28.2483 20.7964 28.9284 20.7964 28.9284L19.0425 33.9754ZM23.9821 19.1208C23.4452 17.4743 22.6219 16.0067 21.3333 15.8635C21.6555 16.7942 21.8345 17.9396 21.8345 19.3356V19.8009C22.1309 19.7066 22.4173 19.6173 22.6935 19.5312C23.1508 19.3886 23.5804 19.2547 23.9821 19.1208Z" fill="white"/>
</svg>
